#N canvas 355 332 296 220 10;
#X obj 28 57 bng 15 250 50 0 empty empty empty 17 7 0 10 -262144 -1
-1;
#X obj 28 132 metro 20;
#X obj 81 157 snapshot~;
#X msg 90 132 stop;
#X msg 81 88 1;
#X obj 7 13 inlet;
#X obj 108 13 inlet;
#X obj 149 13 inlet;
#X obj 190 13 inlet;
#X obj 231 13 inlet;
#X obj 81 178 outlet;
#X obj 50 19 loadbang;
#X obj 103 35 f \$1;
#X obj 138 35 f \$2;
#X obj 172 35 f \$3;
#X obj 204 35 f \$4;
#N canvas 716 122 417 455 adsr 1;
#X obj 32 379 vline~;
#X obj 29 315 pack f f f f;
#X msg 135 343 0 \$2;
#X obj 135 311 pack f f;
#X obj 29 271 / 127;
#X msg 29 343 \$1 \$2 \, \$4 \$3 \$2;
#X obj 29 9 inlet;
#X obj 135 283 sel 0;
#X obj 15 425 outlet~;
#X obj 180 266 r r;
#X obj 52 236 r a;
#X obj 75 243 r d;
#X obj 98 250 r s;
#X obj 144 231 del;
#X msg 144 250 0;
#X msg 11 234 1;
#X obj 152 181 +;
#X msg 152 202 \$1;
#X obj 202 425 outlet;
#X obj 221 359 del;
#X obj 206 328 bng 15 250 50 0 empty empty empty 17 7 0 10 -262144
-1 -1;
#X text 245 365 to the end of the release;
#X text 247 353 A bang is scheduled;
#X obj 133 203 bng 15 250 50 0 empty empty empty 17 7 0 10 -262144
-1 -1;
#X obj 71 24 inlet;
#X obj 97 48 inlet;
#X obj 121 71 inlet;
#X obj 215 89 inlet;
#X connect 0 0 8 0;
#X connect 1 0 5 0;
#X connect 2 0 0 0;
#X connect 3 0 2 0;
#X connect 5 0 0 0;
#X connect 6 0 4 0;
#X connect 6 0 15 0;
#X connect 6 0 23 0;
#X connect 7 0 3 0;
#X connect 9 0 3 1;
#X connect 10 0 1 1;
#X connect 11 0 1 2;
#X connect 12 0 1 3;
#X connect 13 0 14 0;
#X connect 13 0 20 0;
#X connect 14 0 7 0;
#X connect 15 0 1 0;
#X connect 16 0 17 0;
#X connect 17 0 13 1;
#X connect 19 0 18 0;
#X connect 20 0 19 0;
#X connect 23 0 13 0;
#X connect 24 0 16 1;
#X connect 24 0 1 1;
#X connect 25 0 1 2;
#X connect 25 0 16 0;
#X connect 26 0 1 3;
#X connect 27 0 3 1;
#X connect 27 0 19 1;
#X restore 81 109 pd adsr;
#X connect 0 0 1 0;
#X connect 0 0 4 0;
#X connect 1 0 2 0;
#X connect 2 0 10 0;
#X connect 3 0 1 0;
#X connect 4 0 16 0;
#X connect 5 0 0 0;
#X connect 6 0 16 1;
#X connect 7 0 16 2;
#X connect 8 0 16 3;
#X connect 9 0 16 4;
#X connect 11 0 12 0;
#X connect 11 0 13 0;
#X connect 11 0 14 0;
#X connect 11 0 15 0;
#X connect 12 0 16 1;
#X connect 13 0 16 2;
#X connect 14 0 16 3;
#X connect 15 0 16 4;
#X connect 16 0 2 0;
#X connect 16 1 3 0;
