#N canvas 1798 43 442 621 10;
#X obj 161 472 osc~;
#X obj 62 473 osc~;
#X obj 111 473 osc~;
#X floatatom 111 448 5 0 0 0 - - -, f 5;
#X floatatom 161 447 5 0 0 0 - - -, f 5;
#X floatatom 209 448 5 0 0 0 - - -, f 5;
#X floatatom 268 448 5 0 0 0 - - -, f 5;
#X floatatom 62 448 5 0 0 0 - - -, f 5;
#X obj 209 473 osc~;
#X obj 268 472 osc~;
#X obj 163 497 *~;
#X obj 212 498 *~;
#X obj 212 259 vsl 15 64 0 1 0 0 empty empty empty 0 -9 0 10 -262144
-1 -1 6300 1;
#X obj 163 497 *~;
#X obj 115 498 *~;
#X obj 163 258 vsl 15 64 0 1 0 0 empty empty empty 0 -9 0 10 -262144
-1 -1 6300 1;
#X obj 67 498 *~;
#X obj 67 260 vsl 15 64 0 1 0 0 empty empty empty 0 -9 0 10 -262144
-1 -1 6300 1;
#X obj 272 497 *~;
#X obj 272 259 vsl 15 64 0 1 0 0 empty empty empty 0 -9 0 10 -262144
-1 -1 6300 1;
#X obj 115 260 vsl 15 64 0 1 0 0 empty empty empty 0 -9 0 10 -262144
-1 -1 6300 1;
#X msg 208 144 1 1000;
#X msg 98 144 1 1000;
#X msg 153 144 1 1000;
#X msg 42 144 1 1000;
#X msg 262 144 1 1000;
#X obj 62 234 line 20;
#X obj 110 234 line 20;
#X obj 158 233 line 20;
#X obj 207 233 line 20;
#X obj 266 233 line 20;
#X obj 145 80 loadbang;
#N canvas 455 301 290 300 timed_counter 0;
#X obj 66 25 inlet;
#X obj 85 185 hradio 15 1 0 5 empty empty empty 0 -8 0 10 -262144 -1
-1 2;
#X obj 85 109 metro;
#X floatatom 66 43 5 0 0 0 - - -, f 5;
#X obj 116 140 + 1;
#X floatatom 85 165 5 0 0 0 - - -, f 5;
#X obj 85 140 f 0;
#X obj 143 140 mod 5;
#X obj 85 211 route 0 1 2 3 4;
#X obj 23 255 outlet;
#X obj 69 255 outlet;
#X obj 117 255 outlet;
#X obj 165 255 outlet;
#X obj 211 255 outlet;
#X obj 130 24 inlet;
#X connect 0 0 3 0;
#X connect 1 0 8 0;
#X connect 2 0 6 0;
#X connect 3 0 2 1;
#X connect 4 0 7 0;
#X connect 5 0 1 0;
#X connect 6 0 4 0;
#X connect 6 0 5 0;
#X connect 7 0 6 1;
#X connect 8 0 9 0;
#X connect 8 1 10 0;
#X connect 8 2 11 0;
#X connect 8 3 12 0;
#X connect 8 4 13 0;
#X connect 14 0 2 0;
#X restore 117 118 pd timed_counter;
#X msg 145 96 3500;
#X msg 289 186 1 1000;
#X msg 67 167 0.7 1000;
#X msg 126 167 0.7 1000;
#X msg 185 167 0.7 1000;
#X msg 244 167 0.7 1000;
#X obj 172 556 *~;
#X obj 123 525 hsl 128 15 0 1 0 0 empty empty empty -2 -8 0 10 -262144
-1 -1 3810 1;
#X obj 15 21 inlet;
#X obj 74 21 inlet;
#X obj 132 21 inlet;
#X obj 218 21 inlet;
#X obj 275 21 inlet;
#X obj 15 60 s f0-\$0;
#X obj 47 368 r f0-\$0;
#X obj 74 60 s f1-\$0;
#X obj 132 60 s f1-beat-\$0;
#X obj 148 374 r f1-beat-\$0;
#X obj 119 426 -;
#X obj 139 403 * 0.5;
#X obj 156 426 +;
#X obj 227 425 -;
#X obj 247 402 * 0.5;
#X obj 264 425 +;
#X obj 256 373 r f2-beat-\$0;
#X obj 218 60 s f2-\$0;
#X obj 275 60 s f2-beat-\$0;
#X obj 139 353 r f1-\$0;
#X obj 247 352 r f2-\$0;
#X obj 37 41 f \$1;
#X obj 94 41 f \$2;
#X obj 154 41 f \$3;
#X obj 232 41 f \$4;
#X obj 287 41 f \$5;
#X obj 83 3 loadbang;
#X obj 7 525 loadbang;
#X msg 14 509 1;
#X msg 210 95 stop;
#X obj 336 208 inlet;
#X obj 340 225 inlet;
#X obj 344 240 inlet;
#X obj 349 257 inlet;
#X obj 354 274 inlet;
#X obj 111 585 outlet~;
#X obj 207 585 outlet~;
#X obj 247 96 bng 15 250 50 0 empty empty empty 17 7 0 10 -262144 -1
-1;
#X obj 371 485 inlet;
#X floatatom 371 511 5 0 0 0 - - -, f 5;
#X obj 380 206 f \$6;
#X obj 384 225 f \$7;
#X obj 387 246 f \$8;
#X obj 392 271 f \$9;
#X obj 383 295 f \$10;
#X obj 372 462 f \$11;
#X msg 49 202 \$1 1000;
#X msg 105 202 \$1 1000;
#X msg 160 202 \$1 1000;
#X msg 215 202 \$1 1000;
#X msg 269 202 \$1 1000;
#X obj 67 334 * 0.45;
#X obj 115 332 * 0.45;
#X obj 163 332 * 0.45;
#X obj 212 332 * 0.45;
#X obj 272 332 * 0.45;
#X text 223 116 not using this counter for now;
#X obj 144 3 t b b b b b b b;
#X obj 13 129 bng 15 250 50 0 empty empty empty 17 7 0 10 -262144 -1
-1;
#X connect 0 0 10 1;
#X connect 1 0 16 1;
#X connect 2 0 14 1;
#X connect 3 0 2 0;
#X connect 4 0 0 0;
#X connect 5 0 8 0;
#X connect 6 0 9 0;
#X connect 7 0 1 0;
#X connect 8 0 11 1;
#X connect 9 0 18 1;
#X connect 10 0 39 0;
#X connect 11 0 39 0;
#X connect 12 0 95 0;
#X connect 14 0 39 0;
#X connect 15 0 94 0;
#X connect 16 0 39 0;
#X connect 17 0 92 0;
#X connect 18 0 39 0;
#X connect 19 0 96 0;
#X connect 20 0 93 0;
#X connect 21 0 29 0;
#X connect 22 0 27 0;
#X connect 23 0 28 0;
#X connect 24 0 26 0;
#X connect 25 0 30 0;
#X connect 26 0 17 0;
#X connect 27 0 20 0;
#X connect 28 0 15 0;
#X connect 29 0 12 0;
#X connect 30 0 19 0;
#X connect 31 0 33 0;
#X connect 32 0 24 0;
#X connect 32 0 35 0;
#X connect 32 1 22 0;
#X connect 32 1 36 0;
#X connect 32 2 23 0;
#X connect 32 2 37 0;
#X connect 32 3 21 0;
#X connect 32 3 38 0;
#X connect 32 4 25 0;
#X connect 32 4 34 0;
#X connect 33 0 32 0;
#X connect 34 0 26 0;
#X connect 35 0 27 0;
#X connect 36 0 28 0;
#X connect 37 0 29 0;
#X connect 38 0 30 0;
#X connect 39 0 76 0;
#X connect 39 0 77 0;
#X connect 40 0 39 1;
#X connect 41 0 46 0;
#X connect 42 0 48 0;
#X connect 43 0 49 0;
#X connect 44 0 58 0;
#X connect 45 0 59 0;
#X connect 47 0 7 0;
#X connect 50 0 52 0;
#X connect 51 0 3 0;
#X connect 52 0 51 1;
#X connect 52 0 53 1;
#X connect 53 0 4 0;
#X connect 54 0 5 0;
#X connect 55 0 54 1;
#X connect 55 0 56 1;
#X connect 56 0 6 0;
#X connect 57 0 55 0;
#X connect 60 0 51 0;
#X connect 60 0 53 0;
#X connect 61 0 54 0;
#X connect 61 0 56 0;
#X connect 62 0 46 0;
#X connect 63 0 48 0;
#X connect 64 0 49 0;
#X connect 65 0 58 0;
#X connect 66 0 59 0;
#X connect 67 0 98 0;
#X connect 68 0 69 0;
#X connect 69 0 40 0;
#X connect 70 0 32 1;
#X connect 71 0 87 0;
#X connect 72 0 88 0;
#X connect 73 0 89 0;
#X connect 74 0 90 0;
#X connect 75 0 91 0;
#X connect 78 0 32 1;
#X connect 79 0 80 0;
#X connect 80 0 40 0;
#X connect 81 0 87 0;
#X connect 82 0 88 0;
#X connect 83 0 89 0;
#X connect 84 0 90 0;
#X connect 85 0 91 0;
#X connect 86 0 80 0;
#X connect 87 0 26 0;
#X connect 88 0 27 0;
#X connect 89 0 28 0;
#X connect 90 0 29 0;
#X connect 91 0 30 0;
#X connect 92 0 16 0;
#X connect 93 0 14 0;
#X connect 94 0 10 0;
#X connect 95 0 11 0;
#X connect 96 0 18 0;
#X connect 98 0 62 0;
#X connect 98 1 63 0;
#X connect 98 2 64 0;
#X connect 98 3 65 0;
#X connect 98 4 66 0;
#X connect 98 5 81 0;
#X connect 98 5 82 0;
#X connect 98 5 83 0;
#X connect 98 5 84 0;
#X connect 98 5 85 0;
#X connect 98 6 99 0;
#X connect 99 0 24 0;
#X connect 99 0 22 0;
#X connect 99 0 23 0;
#X connect 99 0 21 0;
#X connect 99 0 25 0;
