#N canvas 1366 31 1010 623 10;
#X text 330 465 We have two different beat frequencies: 1 and 1.5 Hz
\, so they coincide every 3s;
#X text 329 503 The two pairs that create these beats are harmonically
related (500|501 vs 800|801.5) to the lower tone (100 Hz):;
#X text 329 534 they are *5th harmonic (2 octaves + just major third)
and *8th harmonic (2 octaves + septimal major second);
#X msg 195 163 500;
#X msg 262 163 800;
#X msg 163 163 100;
#X msg 229 163 1;
#X msg 297 163 1.5;
#X msg 305 124 0.1 1000;
#X msg 366 123 1 1000;
#X obj 340 160 line 1 25;
#X obj 663 401 dac~;
#X floatatom 35 190 5 0 0 0 - - -, f 5;
#X floatatom 70 190 5 0 0 0 - - -, f 5;
#X floatatom 105 190 5 0 0 0 - - -, f 5;
#X floatatom 140 190 5 0 0 0 - - -, f 5;
#X floatatom 175 190 5 0 0 0 - - -, f 5;
#X msg 9 76 \$1 \$2;
#X obj 8 96 line 25;
#X obj 74 96 line 25;
#X obj 140 96 line 25;
#X obj 207 96 line 25;
#X obj 275 96 line 25;
#X msg 74 76 \$3 \$4;
#X msg 140 76 \$5 \$6;
#X msg 207 76 \$7 \$8;
#X msg 275 76 \$9 \$10;
#X msg 53 11 100 5000 500 5000 1 5000 800 5000 1.5 5000;
#X msg 53 34 150 5000 600 5000 3.1 5000 700 5000 4.5 5000;
#X obj 265 490 line 1 25;
#X obj 278 510 hsl 32 15 0 1 0 0 empty empty empty -2 -8 0 10 -262144
-1 -1 0 1;
#X obj 383 193 line 1 25;
#X msg 235 267 0.1 1000;
#X msg 296 266 1 1000;
#X obj 270 303 line 1 25;
#X msg 166 450 0.1 1000;
#X msg 227 449 1 1000;
#X obj 202 478 line 1 25;
#X obj 95 506 beats1 100 500 1 800 1.5;
#X obj 208 205 beats1 100 500 1 800 1.5;
#X obj 28 340 beats1 493.8 659.2 0.3 1046 0.7 0.6 1 1 1 1 0.75;
#X obj 382 322 line 1 25;
#N canvas 621 79 609 317 try_combinations 1;
#X obj 480 23 ctlin;
#X obj 102 251 beats1 100 500 1 800 1.5;
#X obj 181 7 notein;
#X floatatom 162 37 5 0 0 0 - - -, f 5;
#X floatatom 197 37 5 0 0 0 - - -, f 5;
#X floatatom 232 37 5 0 0 0 - - -, f 5;
#X obj 161 110 hradio 15 1 0 8 empty empty empty 0 -8 0 10 -262144
-1 -1 0;
#X obj 162 63 - 36;
#X obj 173 87 spigot;
#X obj 217 63 == 10;
#X obj 366 73 notein;
#X obj 375 121 spigot;
#X obj 399 99 != 10;
#X obj 400 155 mtof;
#X obj 466 78 == 7;
#X obj 442 99 spigot;
#X obj 444 124 * 0.1;
#X obj 426 182 +;
#X obj 12 179 spigot;
#X obj 45 156 == 0;
#X floatatom 13 203 5 0 0 0 - - -, f 5;
#X obj 80 179 spigot;
#X floatatom 81 203 5 0 0 0 - - -, f 5;
#X obj 12 156 r nt;
#X obj 80 157 r nt;
#X obj 113 156 == 1;
#X obj 149 178 spigot;
#X floatatom 150 202 5 0 0 0 - - -, f 5;
#X obj 149 156 r nt;
#X obj 182 155 == 2;
#X obj 533 79 == 75;
#X obj 516 100 spigot;
#X floatatom 516 202 5 0 0 0 - - -, f 5;
#X floatatom 425 204 5 0 0 0 - - -, f 5;
#X obj 427 226 s nt;
#X obj 227 180 spigot;
#X floatatom 228 204 5 0 0 0 - - -, f 5;
#X obj 295 180 spigot;
#X floatatom 296 204 5 0 0 0 - - -, f 5;
#X obj 516 226 s b_f;
#X obj 227 157 r b_f;
#X obj 295 158 r b_f;
#X obj 260 157 == 1;
#X obj 328 157 == 2;
#X text 506 245 beat freq;
#X text 390 245 note + variation;
#X obj 516 125 * 0.1;
#X obj 175 272 hsl 16 15 0 1 0 0 empty empty empty -2 -8 0 10 -262144
-1 -1 0 1;
#X obj 268 271 hsl 16 15 0 1 0 0 empty empty empty -2 -8 0 10 -262144
-1 -1 0 1;
#X obj 168 296 dac~;
#X obj 290 236 loadbang;
#X msg 265 252 0;
#X connect 0 0 31 0;
#X connect 0 0 15 0;
#X connect 0 1 14 0;
#X connect 0 1 30 0;
#X connect 1 0 49 0;
#X connect 1 1 49 1;
#X connect 2 0 3 0;
#X connect 2 1 4 0;
#X connect 2 2 5 0;
#X connect 3 0 7 0;
#X connect 5 0 9 0;
#X connect 6 0 19 0;
#X connect 6 0 25 0;
#X connect 6 0 29 0;
#X connect 6 0 42 0;
#X connect 6 0 43 0;
#X connect 7 0 8 0;
#X connect 8 0 6 0;
#X connect 9 0 8 1;
#X connect 10 0 11 0;
#X connect 10 2 12 0;
#X connect 11 0 13 0;
#X connect 12 0 11 1;
#X connect 13 0 17 0;
#X connect 14 0 15 1;
#X connect 15 0 16 0;
#X connect 16 0 17 1;
#X connect 17 0 33 0;
#X connect 18 0 20 0;
#X connect 19 0 18 1;
#X connect 20 0 1 0;
#X connect 21 0 22 0;
#X connect 22 0 1 1;
#X connect 23 0 18 0;
#X connect 24 0 21 0;
#X connect 25 0 21 1;
#X connect 26 0 27 0;
#X connect 27 0 1 3;
#X connect 28 0 26 0;
#X connect 29 0 26 1;
#X connect 30 0 31 1;
#X connect 31 0 46 0;
#X connect 32 0 39 0;
#X connect 33 0 34 0;
#X connect 35 0 36 0;
#X connect 36 0 1 2;
#X connect 37 0 38 0;
#X connect 38 0 1 4;
#X connect 40 0 35 0;
#X connect 41 0 37 0;
#X connect 42 0 35 1;
#X connect 43 0 37 1;
#X connect 46 0 32 0;
#X connect 47 0 1 5;
#X connect 48 0 1 10;
#X connect 50 0 51 0;
#X connect 51 0 48 0;
#X restore 840 445 pd try_combinations;
#X obj 696 200 tgl 15 0 empty empty empty 17 7 0 10 -262144 -1 -1 0
1;
#X obj 732 201 tgl 15 0 empty empty empty 17 7 0 10 -262144 -1 -1 1
1;
#X obj 769 202 tgl 15 0 empty empty empty 17 7 0 10 -262144 -1 -1 0
1;
#X obj 805 203 tgl 15 0 empty empty empty 17 7 0 10 -262144 -1 -1 1
1;
#X obj 842 204 tgl 15 0 empty empty empty 17 7 0 10 -262144 -1 -1 0
1;
#X obj 879 205 tgl 15 0 empty empty empty 17 7 0 10 -262144 -1 -1 0
1;
#X obj 390 279 * 0.3;
#X msg 390 299 \$1 4000;
#X msg 433 158 \$1 4000;
#X msg 278 468 \$1 4000;
#X obj 696 131 randomSwitches/randomSwitches 6;
#X msg 741 72 \$1;
#X obj 741 96 delay;
#X obj 781 53 random 50;
#X floatatom 799 89 5 0 0 0 - - -, f 5;
#X obj 781 73 * 100;
#X obj 741 30 loadbang;
#X obj 735 15 bng 15 250 50 0 empty empty empty 17 7 0 10 -262144 -1
-1;
#X obj 696 155 s b1-\$0;
#X obj 732 173 s b2-\$0;
#X obj 769 155 s b3-\$0;
#X obj 805 173 s b4-\$0;
#X obj 842 155 s b5-\$0;
#X obj 879 173 s b6-\$0;
#X obj 332 18 loadbang;
#N canvas 143 131 612 335 GB 0;
#X obj 22 17 inlet~;
#X obj 22 291 outlet~;
#X obj 543 299 outlet~;
#X obj 22 79 GB/grannie-basher;
#X obj 543 18 inlet~;
#X text 233 272 delay line granulizer;
#X text 242 288 hard.off@gmail.com;
#X connect 0 0 3 0;
#X connect 3 0 1 0;
#X connect 3 1 2 0;
#X connect 4 0 3 1;
#X restore 659 373 pd GB;
#X text 710 230 TODO - more beats1 instances;
#X obj 208 225 throw~ L-\$0;
#X obj 286 225 throw~ R-\$0;
#X obj 95 526 throw~ L-\$0;
#X obj 173 526 throw~ R-\$0;
#X obj 100 361 throw~ L-\$0;
#X obj 178 361 throw~ R-\$0;
#X obj 611 345 catch~ L-\$0;
#X obj 689 345 catch~ R-\$0;
#X text 330 445 Based on Jean Claude Risset's beats;
#X connect 3 0 39 1;
#X connect 4 0 39 3;
#X connect 5 0 39 0;
#X connect 6 0 39 2;
#X connect 7 0 39 4;
#X connect 8 0 10 0;
#X connect 9 0 10 0;
#X connect 10 0 39 7;
#X connect 10 0 39 9;
#X connect 12 0 39 0;
#X connect 13 0 39 1;
#X connect 14 0 39 2;
#X connect 15 0 39 3;
#X connect 16 0 39 4;
#X connect 17 0 18 0;
#X connect 18 0 12 0;
#X connect 19 0 13 0;
#X connect 20 0 14 0;
#X connect 21 0 15 0;
#X connect 22 0 16 0;
#X connect 23 0 19 0;
#X connect 24 0 20 0;
#X connect 25 0 21 0;
#X connect 26 0 22 0;
#X connect 27 0 17 0;
#X connect 27 0 23 0;
#X connect 27 0 24 0;
#X connect 27 0 25 0;
#X connect 27 0 26 0;
#X connect 28 0 17 0;
#X connect 28 0 23 0;
#X connect 28 0 24 0;
#X connect 28 0 25 0;
#X connect 28 0 26 0;
#X connect 29 0 38 10;
#X connect 30 0 38 10;
#X connect 31 0 39 10;
#X connect 32 0 34 0;
#X connect 33 0 34 0;
#X connect 34 0 40 9;
#X connect 34 0 40 7;
#X connect 35 0 37 0;
#X connect 36 0 37 0;
#X connect 37 0 38 9;
#X connect 37 0 38 7;
#X connect 38 0 72 0;
#X connect 38 1 73 0;
#X connect 39 0 70 0;
#X connect 39 1 71 0;
#X connect 40 0 74 0;
#X connect 40 1 75 0;
#X connect 41 0 40 10;
#X connect 49 0 50 0;
#X connect 50 0 41 0;
#X connect 51 0 31 0;
#X connect 52 0 29 0;
#X connect 53 0 52 0;
#X connect 53 0 43 0;
#X connect 53 0 61 0;
#X connect 53 1 44 0;
#X connect 53 1 49 0;
#X connect 53 1 62 0;
#X connect 53 2 51 0;
#X connect 53 2 45 0;
#X connect 53 2 63 0;
#X connect 53 3 46 0;
#X connect 53 3 64 0;
#X connect 53 4 47 0;
#X connect 53 4 65 0;
#X connect 53 5 48 0;
#X connect 53 5 66 0;
#X connect 54 0 55 0;
#X connect 55 0 56 0;
#X connect 55 0 53 0;
#X connect 56 0 58 0;
#X connect 58 0 54 0;
#X connect 58 0 57 0;
#X connect 59 0 54 0;
#X connect 60 0 54 0;
#X connect 67 0 28 0;
#X connect 68 0 11 0;
#X connect 68 1 11 1;
#X connect 76 0 68 0;
#X connect 77 0 68 1;
