#N canvas 1355 23 1202 624 10;
#X declare -path randomSwitches;
#X obj 1013 594 dac~;
#X floatatom 32 168 5 0 0 0 - - -, f 5;
#X floatatom 67 168 5 0 0 0 - - -, f 5;
#X floatatom 102 168 5 0 0 0 - - -, f 5;
#X floatatom 137 168 5 0 0 0 - - -, f 5;
#X floatatom 172 168 5 0 0 0 - - -, f 5;
#X msg 6 72 \$1 \$2;
#X obj 5 92 line 25;
#X obj 71 92 line 25;
#X obj 137 92 line 25;
#X obj 204 92 line 25;
#X obj 272 92 line 25;
#X msg 71 72 \$3 \$4;
#X msg 137 72 \$5 \$6;
#X msg 204 72 \$7 \$8;
#X msg 272 72 \$9 \$10;
#X obj 293 457 hsl 32 15 0 0.2 0 0 empty empty empty -2 -8 0 10 -4034
-1 -1 3100 1;
#N canvas 28 163 906 392 try_combinations 1;
#X obj 775 80 ctlin;
#X obj 292 5 notein;
#X floatatom 273 35 5 0 0 0 - - -, f 5;
#X floatatom 308 35 5 0 0 0 - - -, f 5;
#X floatatom 343 35 5 0 0 0 - - -, f 5;
#X obj 284 106 hradio 15 1 0 8 empty empty empty 0 -8 0 10 -262144
-1 -1 4;
#X obj 273 56 - 36;
#X obj 284 85 spigot;
#X obj 343 55 == 10;
#X obj 661 130 notein;
#X obj 670 178 spigot;
#X obj 694 156 != 10;
#X obj 695 212 mtof;
#X obj 761 135 == 7;
#X obj 737 156 spigot;
#X obj 739 181 * 0.1;
#X obj 721 239 +;
#X obj 13 179 spigot;
#X obj 46 156 == 0;
#X floatatom 14 203 5 0 0 0 - - -, f 5;
#X obj 81 179 spigot;
#X floatatom 82 203 5 0 0 0 - - -, f 5;
#X obj 13 156 r nt;
#X obj 81 157 r nt;
#X obj 114 156 == 1;
#X obj 213 179 spigot;
#X floatatom 214 203 5 0 0 0 - - -, f 5;
#X obj 213 157 r nt;
#X obj 246 156 == 2;
#X obj 828 136 == 75;
#X obj 811 157 spigot;
#X floatatom 811 259 5 0 0 0 - - -, f 5;
#X floatatom 720 261 5 0 0 0 - - -, f 5;
#X obj 722 283 s nt;
#X obj 147 180 spigot;
#X floatatom 148 204 5 0 0 0 - - -, f 5;
#X obj 279 179 spigot;
#X floatatom 280 203 5 0 0 0 - - -, f 5;
#X obj 811 283 s b_f;
#X obj 147 157 r b_f;
#X obj 279 157 r b_f;
#X obj 180 157 == 1;
#X obj 316 157 == 2;
#X text 801 302 beat freq;
#X text 685 302 note + variation;
#X obj 811 182 * 0.1;
#X obj 320 320 hsl 16 15 0 1 0 0 empty empty empty -2 -8 0 10 -262144
-1 -1 0 1;
#X obj 313 344 dac~;
#X obj 485 316 loadbang;
#X msg 460 332 0;
#X obj 326 70 tgl 15 0 empty empty empty 17 7 0 10 -262144 -1 -1 0
1;
#X floatatom 739 209 5 0 0 0 - - -, f 5;
#X obj 488 297 hsl 16 15 0 1 0 0 empty empty empty -2 -8 0 10 -262144
-1 -1 0 1;
#X obj 350 180 spigot;
#X floatatom 351 204 5 0 0 0 - - -, f 5;
#X obj 350 158 r nt;
#X obj 482 180 spigot;
#X floatatom 483 204 5 0 0 0 - - -, f 5;
#X obj 482 158 r nt;
#X obj 416 181 spigot;
#X floatatom 417 205 5 0 0 0 - - -, f 5;
#X obj 548 180 spigot;
#X floatatom 549 204 5 0 0 0 - - -, f 5;
#X obj 416 158 r b_f;
#X obj 548 158 r b_f;
#X obj 383 157 == 3;
#X obj 449 158 == 3;
#X obj 515 157 == 4;
#X obj 585 158 == 4;
#X obj 688 244 bng 15 250 50 0 empty empty empty 17 7 0 10 -262144
-1 -1;
#X obj 63 273 notein;
#X floatatom 63 293 5 0 0 0 - - -, f 5;
#X obj 63 312 mtof;
#X floatatom 63 333 5 0 0 0 - - -, f 5;
#X obj 117 329 ftom;
#X floatatom 114 300 5 0 0 0 - - -, f 5;
#X floatatom 113 351 5 0 0 0 - - -, f 5;
#X obj 220 299 beats5 100 500 1 800 1.5 900 2 1000 5 0.2;
#X connect 0 0 30 0;
#X connect 0 0 14 0;
#X connect 0 1 13 0;
#X connect 0 1 29 0;
#X connect 1 0 2 0;
#X connect 1 1 3 0;
#X connect 1 2 4 0;
#X connect 2 0 6 0;
#X connect 4 0 8 0;
#X connect 5 0 18 0;
#X connect 5 0 24 0;
#X connect 5 0 28 0;
#X connect 5 0 41 0;
#X connect 5 0 42 0;
#X connect 5 0 65 0;
#X connect 5 0 66 0;
#X connect 5 0 67 0;
#X connect 5 0 68 0;
#X connect 6 0 7 0;
#X connect 7 0 5 0;
#X connect 8 0 50 0;
#X connect 9 0 10 0;
#X connect 9 2 11 0;
#X connect 10 0 12 0;
#X connect 11 0 10 1;
#X connect 12 0 16 0;
#X connect 13 0 14 1;
#X connect 14 0 15 0;
#X connect 15 0 51 0;
#X connect 16 0 32 0;
#X connect 17 0 19 0;
#X connect 18 0 17 1;
#X connect 19 0 77 0;
#X connect 20 0 21 0;
#X connect 21 0 77 1;
#X connect 22 0 17 0;
#X connect 23 0 20 0;
#X connect 24 0 20 1;
#X connect 25 0 26 0;
#X connect 26 0 77 3;
#X connect 27 0 25 0;
#X connect 28 0 25 1;
#X connect 29 0 30 1;
#X connect 30 0 45 0;
#X connect 31 0 38 0;
#X connect 32 0 33 0;
#X connect 34 0 35 0;
#X connect 35 0 77 2;
#X connect 36 0 37 0;
#X connect 37 0 77 4;
#X connect 39 0 34 0;
#X connect 40 0 36 0;
#X connect 41 0 34 1;
#X connect 42 0 36 1;
#X connect 45 0 31 0;
#X connect 46 0 77 5;
#X connect 48 0 49 0;
#X connect 49 0 52 0;
#X connect 50 0 7 1;
#X connect 51 0 16 1;
#X connect 51 0 69 0;
#X connect 52 0 77 18;
#X connect 53 0 54 0;
#X connect 54 0 77 5;
#X connect 55 0 53 0;
#X connect 56 0 57 0;
#X connect 57 0 77 7;
#X connect 58 0 56 0;
#X connect 59 0 60 0;
#X connect 60 0 77 6;
#X connect 61 0 62 0;
#X connect 62 0 77 8;
#X connect 63 0 59 0;
#X connect 64 0 61 0;
#X connect 65 0 53 1;
#X connect 66 0 59 1;
#X connect 67 0 56 1;
#X connect 68 0 61 1;
#X connect 69 0 16 0;
#X connect 70 0 71 0;
#X connect 71 0 72 0;
#X connect 72 0 73 0;
#X connect 74 0 76 0;
#X connect 75 0 74 0;
#X connect 77 0 47 0;
#X connect 77 1 47 1;
#X restore 1054 600 pd try_combinations;
#X obj 977 278 tgl 15 0 empty empty empty 17 7 0 10 -262144 -1 -1 0
1;
#X obj 1013 278 tgl 15 0 empty empty empty 17 7 0 10 -262144 -1 -1
1 1;
#X obj 1050 278 tgl 15 0 empty empty empty 17 7 0 10 -262144 -1 -1
1 1;
#X obj 1086 277 tgl 15 0 empty empty empty 17 7 0 10 -262144 -1 -1
0 1;
#X msg 336 289 \$1 4000;
#X msg 418 71 \$1 4000;
#X msg 290 417 \$1 4000;
#X msg 984 79 \$1;
#X obj 984 104 delay;
#X floatatom 1071 123 5 0 0 0 - - -, f 5;
#X obj 1037 99 * 100;
#X obj 1037 57 loadbang;
#X obj 1029 42 bng 15 250 50 0 empty empty empty 17 7 0 10 -262144
-1 -1;
#X obj 329 14 loadbang;
#N canvas 458 310 612 335 GB 1;
#X obj 22 17 inlet~;
#X obj 22 291 outlet~;
#X obj 543 299 outlet~;
#X obj 22 79 GB/grannie-basher;
#X obj 304 17 inlet~;
#X text 233 272 delay line granulizer;
#X text 242 288 hard.off@gmail.com;
#X obj 510 18 inlet;
#X connect 0 0 3 0;
#X connect 3 0 1 0;
#X connect 3 1 2 0;
#X connect 4 0 3 1;
#X connect 7 0 3 2;
#X restore 1009 566 pd GB;
#X obj 205 203 throw~ L-\$0;
#X obj 283 203 throw~ R-\$0;
#X obj 69 466 throw~ L-\$0;
#X obj 147 466 throw~ R-\$0;
#X obj 83 335 throw~ L-\$0;
#X obj 161 335 throw~ R-\$0;
#X obj 992 487 catch~ L-\$0;
#X obj 1070 487 catch~ R-\$0;
#X obj 339 329 hsl 32 15 0 0.2 0 0 empty empty empty -2 -8 0 10 -4034
-1 -1 1860 1;
#X obj 421 111 hsl 32 15 0 0.2 0 0 empty empty empty -2 -8 0 10 -4034
-1 -1 0 1;
#X text 977 424 100(A2-) 500(B4+) 800(A5++);
#X text 977 404 493.8(B4) 659.2(E4) 1046(C5);
#X text 977 384 150 (D-D#3) 600 (D-D#5) 700(F);
#X obj 414 6 r b-\$0-1;
#X obj 977 239 s b-\$0-1;
#X obj 1013 259 s b-\$0-2;
#X obj 1050 239 s b-\$0-3;
#X obj 1086 258 s b-\$0-4;
#X obj 336 250 r b-\$0-2;
#X obj 290 378 r b-\$0-3;
#X obj 431 566 hsl 32 15 0 0.2 0 0 empty empty empty -2 -8 0 10 -4034
-1 -1 0 1;
#X msg 428 528 \$1 4000;
#X obj 500 509 r b-\$0-4;
#X obj 152 603 throw~ L-\$0;
#X obj 230 603 throw~ R-\$0;
#X text 978 443 329.6(E4) 830.6(B5) 493.8(G#4) 1479(F#6) 2230(C#-)
;
#X obj 1074 562 r mix;
#X obj 1077 583 hsl 32 8 0 1 0 0 empty empty empty -2 -8 0 10 -16662
-262144 -1 0 1;
#X obj 1071 107 max 1000;
#X obj 1037 79 random 60;
#N canvas 1071 397 208 248 receive_OSC 1;
#X obj 11 6 loadbang;
#X obj 11 72 oscparse;
#X obj 11 94 list trim;
#X obj 28 196 s mix;
#X obj 28 174 line 1 25;
#X msg 28 153 \$1 200;
#X msg 114 28 listen 0;
#X msg 11 28 listen 8084;
#X obj 11 50 netreceive -u -b;
#X obj 11 116 route mix;
#X connect 0 0 7 0;
#X connect 1 0 2 0;
#X connect 2 0 9 0;
#X connect 4 0 3 0;
#X connect 5 0 4 0;
#X connect 6 0 8 0;
#X connect 7 0 8 0;
#X connect 8 0 1 0;
#X connect 9 0 5 0;
#X restore 1021 466 pd receive_OSC;
#X text 1008 27 TODO - more beats instances;
#X obj 326 111 r mix;
#X msg 326 153 \$1 500;
#X floatatom 388 149 5 0 0 0 - - -, f 5;
#X obj 378 119 hsl 32 8 0 1 0 0 empty empty empty -2 -8 0 10 -16662
-262144 -1 0 1;
#X obj 220 246 r mix;
#X msg 220 288 \$1 500;
#X floatatom 282 284 5 0 0 0 - - -, f 5;
#X obj 269 255 hsl 32 8 0 1 0 0 empty empty empty -2 -8 0 10 -16662
-262144 -1 0 1;
#X obj 298 495 r mix;
#X msg 298 537 \$1 500;
#X floatatom 360 533 5 0 0 0 - - -, f 5;
#X obj 347 504 hsl 32 8 0 1 0 0 empty empty empty -2 -8 0 10 -16662
-262144 -1 0 1;
#X obj 173 375 r mix;
#X msg 173 417 \$1 500;
#X floatatom 235 413 5 0 0 0 - - -, f 5;
#X obj 212 383 hsl 32 8 0 1 0 0 empty empty empty -2 -8 0 10 -16662
-262144 -1 0 1;
#X obj 1134 87 hsl 32 8 0 1 0 0 empty empty empty -2 -8 0 10 -16662
-262144 -1 0 1;
#X obj 1131 98 s mix;
#X obj 326 133 expr 1 -$f1*0.9;
#X obj 220 268 expr 1 -$f1*0.9;
#X obj 173 397 expr 1 -$f1*0.9;
#X msg 50 7 200 5000 500 5000 1 5000 800 5000 1.5 5000;
#X msg 50 30 150 5000 600 5000 3.1 5000 700 5000 4.5 5000;
#X obj 298 517 expr 1 -$f1;
#X obj 867 506 hsl 32 15 0 0.2 0 0 empty empty empty -2 -8 0 10 -4034
-1 -1 775 1;
#X msg 872 464 \$1 4000;
#X obj 872 424 r b-\$0-5;
#X obj 694 382 r mix;
#X msg 694 424 \$1 500;
#X floatatom 756 420 5 0 0 0 - - -, f 5;
#X obj 733 390 hsl 32 8 0 1 0 0 empty empty empty -2 -8 0 10 -16662
-262144 -1 0 1;
#X obj 694 404 expr 1 -$f1*0.9;
#X obj 1123 277 tgl 15 0 empty empty empty 17 7 0 10 -262144 -1 -1
1 1;
#X obj 1123 239 s b-\$0-5;
#X floatatom 534 348 5 0 0 0 - - -, f 5;
#X floatatom 569 348 5 0 0 0 - - -, f 5;
#X floatatom 604 348 5 0 0 0 - - -, f 5;
#X floatatom 639 348 5 0 0 0 - - -, f 5;
#X floatatom 674 348 5 0 0 0 - - -, f 5;
#X msg 523 304 \$1 \$2;
#X obj 523 325 line 25;
#X obj 572 325 line 25;
#X obj 622 324 line 25;
#X obj 673 324 line 25;
#X obj 724 325 line 25;
#X msg 572 305 \$3 \$4;
#X msg 622 304 \$5 \$6;
#X msg 673 304 \$7 \$8;
#X msg 724 305 \$9 \$10;
#X msg 528 256 600 500 2000 200 1 200 2400 200 0.5 200;
#N canvas 1988 262 399 238 ampGesture1 0;
#X obj 49 88 f 0;
#X obj 79 88 + 1;
#X obj 49 111 sig~;
#X obj 94 163 snapshot~;
#X msg 129 73 stop;
#X msg 153 93 0;
#X floatatom 94 184 5 0 0 0 - - -, f 5;
#X floatatom 5 111 5 0 0 0 - - -, f 5;
#X obj 85 111 moses 99;
#X obj 49 65 metro 50;
#X obj 19 30 inlet;
#X obj 94 207 outlet;
#X obj 22 215 line;
#X obj 18 162 loadbang;
#X msg 54 191 20;
#X msg 8 191 \$1 49;
#N canvas 0 22 450 278 (subpatch) 0;
#X array env1-1 100 float 3;
#A 0 0 0 0 0 0 0 0 0 -1.19209e-07 -1.19209e-07 -1.19209e-07 0.0142856
0.0142856 0.0285712 0.0428569 0.0571426 0.0571426 0.0714283 0.0999997
0.114285 0.128571 0.142857 0.157142 0.171428 0.185714 0.199999 0.228571
0.242857 0.257142 0.271428 0.314285 0.342856 0.371428 0.414285 0.42857
0.442856 0.471427 0.514284 0.557142 0.571427 0.599999 0.642856 0.685713
0.714284 0.742855 0.785712 0.842855 0.871427 0.914284 0.942855 0.942855
0.957141 0.985712 0.985712 0.985712 0.999998 0.999998 0.999998 0.999998
0.999998 0.999998 0.999998 0.999998 0.999998 0.999998 0.999998 0.999998
0.999998 0.999998 0.999998 0.985712 0.985712 0.985712 0.971426 0.971426
0.971426 0.957141 0.942855 0.928569 0.857141 0.799998 0.699998 0.614284
0.514284 0.42857 0.371428 0.299999 0.242857 0.171428 0.128571 0.0999997
0.0714283 0.0571426 0.0428569 0.0285712 0.0142856 -1.19209e-07 -0.0142858
-0.0142858 -0.0142858;
#X coords 0 1 100 -1 200 140 1 0 0;
#X restore 185 35 graph;
#X obj 50 135 tabread4~ env1-1;
#X connect 0 0 2 0;
#X connect 0 0 1 0;
#X connect 0 0 7 0;
#X connect 0 0 8 0;
#X connect 1 0 0 1;
#X connect 2 0 17 0;
#X connect 3 0 6 0;
#X connect 4 0 9 0;
#X connect 5 0 0 1;
#X connect 6 0 11 0;
#X connect 6 0 15 0;
#X connect 8 1 5 0;
#X connect 8 1 4 0;
#X connect 9 0 0 0;
#X connect 9 0 3 0;
#X connect 10 0 9 0;
#X connect 12 0 11 0;
#X connect 13 0 14 0;
#X connect 14 0 12 2;
#X connect 15 0 12 0;
#X connect 17 0 3 0;
#X restore 524 73 pd ampGesture1;
#X obj 1008 10 declare -path randomSwitches;
#X obj 716 572 ampEnv 15 1000 0.3 3000;
#X text 414 589 [beats3] and [beats5] are Based on;
#X text 416 606 Jean Claude Risset's beats;
#X obj 765 529 sel 1;
#X obj 799 251 del 3000;
#X obj 764 223 sel 1;
#X obj 426 244 del 5000;
#X obj 984 183 random 2;
#X obj 984 141 randomSwitches 3;
#X obj 984 162 select 1;
#X obj 1051 183 random 2;
#X obj 1051 162 select 1;
#X obj 1119 183 random 2;
#X obj 1119 162 select 1;
#X msg 924 157 seed 123;
#X msg 923 179 seed 456;
#X msg 924 199 seed 789;
#X obj 984 204 == 0;
#X obj 1014 204 == 1;
#X obj 1051 204 == 0;
#X obj 1119 204 == 0;
#X obj 1082 204 == 1;
#X obj 429 419 hsl 32 15 0 1 0 0 empty empty empty -2 -8 0 10 -262144
-1 -1 0 1;
#X obj 981 359 v b1;
#X obj 981 319 r b-\$0-1;
#X obj 1017 339 r b-\$0-2;
#X obj 1054 319 r b-\$0-3;
#X obj 1090 339 r b-\$0-4;
#X obj 1127 319 r b-\$0-5;
#X obj 1017 359 v b2;
#X obj 1054 359 v b3;
#X obj 1090 359 v b4;
#X obj 1127 359 v b5;
#X obj 1152 203 == 1;
#X obj 426 374 spigot;
#X obj 459 359 tgl 15 0 empty empty empty 17 7 0 10 -262144 -1 -1 0
1;
#X msg 365 392 0;
#X msg 363 467 \$1;
#X obj 363 451 v b3;
#X obj 1144 262 s b-3;
#X obj 764 182 r b-3;
#X msg 363 435 bang;
#X obj 479 359 == 0;
#X obj 308 476 select 0;
#X obj 467 468 spigot;
#X obj 497 454 tgl 15 0 empty empty empty 17 7 0 10 -262144 -1 -1 1
1;
#X obj 478 414 del 5000;
#X obj 487 487 loadbang;
#X msg 498 434 0;
#X msg 471 435 1;
#X obj 442 324 loadbang;
#X msg 456 340 1;
#X obj 290 437 line 0 25;
#X obj 764 202 random 4;
#N canvas 2079 398 399 238 ampGesture3 0;
#X obj 49 88 f 0;
#X obj 79 88 + 1;
#X obj 49 111 sig~;
#X obj 94 163 snapshot~;
#X msg 129 73 stop;
#X msg 153 93 0;
#X floatatom 94 184 5 0 0 0 - - -, f 5;
#X floatatom 5 111 5 0 0 0 - - -, f 5;
#X obj 85 111 moses 99;
#X obj 49 65 metro 50;
#X obj 19 30 inlet;
#X obj 94 207 outlet;
#X obj 22 215 line;
#X obj 18 162 loadbang;
#X msg 54 191 20;
#X msg 8 191 \$1 49;
#N canvas 0 22 450 278 (subpatch) 0;
#X array env3-3 100 float 3;
#A 0 0 0 0 0 0 0 0 0 -1.19209e-07 -1.19209e-07 -1.19209e-07 0.0142856
0.0142856 0.0285712 0.0428569 0.0571426 0.0571426 0.0714283 0.0999997
0.114285 0.128571 0.142857 0.157142 0.171428 0.185714 0.199999 0.228571
0.242857 0.257142 0.271428 0.314285 0.342856 0.371428 0.414285 0.42857
0.442856 0.471427 0.514284 0.557142 0.571427 0.599999 0.642856 0.685713
0.714284 0.742855 0.785712 0.842855 0.871427 0.914284 0.942855 0.942855
0.957141 0.985712 0.985712 0.985712 0.999998 0.999998 0.999998 0.999998
0.999998 0.999998 0.999998 0.999998 0.999998 0.999998 0.999998 0.999998
0.999998 0.999998 0.999998 0.985712 0.985712 0.985712 0.971426 0.971426
0.971426 0.957141 0.942855 0.928569 0.857141 0.799998 0.699998 0.614284
0.514284 0.42857 0.371428 0.299999 0.242857 0.171428 0.128571 0.0999997
0.0714283 0.0571426 0.0428569 0.0285712 0.0142856 -1.19209e-07 -0.0142858
-0.0142858 -0.0142858;
#X coords 0 1 100 -1 200 140 1 0 0;
#X restore 185 35 graph;
#X obj 50 135 tabread4~ env3-3;
#X connect 0 0 2 0;
#X connect 0 0 1 0;
#X connect 0 0 7 0;
#X connect 0 0 8 0;
#X connect 1 0 0 1;
#X connect 2 0 17 0;
#X connect 3 0 6 0;
#X connect 4 0 9 0;
#X connect 5 0 0 1;
#X connect 6 0 11 0;
#X connect 6 0 15 0;
#X connect 8 1 5 0;
#X connect 8 1 4 0;
#X connect 9 0 0 0;
#X connect 9 0 3 0;
#X connect 10 0 9 0;
#X connect 12 0 11 0;
#X connect 13 0 14 0;
#X connect 14 0 12 2;
#X connect 15 0 12 0;
#X connect 17 0 3 0;
#X restore 426 398 pd ampGesture3;
#N canvas 2079 398 399 238 ampGesture5 0;
#X obj 49 88 f 0;
#X obj 79 88 + 1;
#X obj 49 111 sig~;
#X obj 94 163 snapshot~;
#X msg 129 73 stop;
#X msg 153 93 0;
#X floatatom 94 184 5 0 0 0 - - -, f 5;
#X floatatom 5 111 5 0 0 0 - - -, f 5;
#X obj 85 111 moses 99;
#X obj 49 65 metro 50;
#X obj 19 30 inlet;
#X obj 94 207 outlet;
#X obj 22 215 line;
#X obj 18 162 loadbang;
#X msg 54 191 20;
#X msg 8 191 \$1 49;
#N canvas 0 22 450 278 (subpatch) 0;
#X array env5-5 100 float 3;
#A 0 0 0 0 0 0 0 0 0 -1.19209e-07 -1.19209e-07 -1.19209e-07 0.0142856
0.0142856 0.0285712 0.0428569 0.0571426 0.0571426 0.0714283 0.0999997
0.114285 0.128571 0.142857 0.157142 0.171428 0.185714 0.199999 0.228571
0.242857 0.257142 0.271428 0.314285 0.342856 0.371428 0.414285 0.42857
0.442856 0.471427 0.514284 0.557142 0.571427 0.599999 0.642856 0.685713
0.714284 0.742855 0.785712 0.842855 0.871427 0.914284 0.942855 0.942855
0.957141 0.985712 0.985712 0.985712 0.999998 0.999998 0.999998 0.999998
0.999998 0.999998 0.999998 0.999998 0.999998 0.999998 0.999998 0.999998
0.999998 0.999998 0.999998 0.985712 0.985712 0.985712 0.971426 0.971426
0.971426 0.957141 0.942855 0.928569 0.857141 0.799998 0.699998 0.614284
0.514284 0.42857 0.371428 0.299999 0.242857 0.171428 0.128571 0.0999997
0.0714283 0.0571426 0.0428569 0.0285712 0.0142856 -1.19209e-07 -0.0142858
-0.0142858 -0.0142858;
#X coords 0 1 100 -1 200 140 1 0 0;
#X restore 185 35 graph;
#X obj 50 135 tabread4~ env5-5;
#X connect 0 0 2 0;
#X connect 0 0 1 0;
#X connect 0 0 7 0;
#X connect 0 0 8 0;
#X connect 1 0 0 1;
#X connect 2 0 17 0;
#X connect 3 0 6 0;
#X connect 4 0 9 0;
#X connect 5 0 0 1;
#X connect 6 0 11 0;
#X connect 6 0 15 0;
#X connect 8 1 5 0;
#X connect 8 1 4 0;
#X connect 9 0 0 0;
#X connect 9 0 3 0;
#X connect 10 0 9 0;
#X connect 12 0 11 0;
#X connect 13 0 14 0;
#X connect 14 0 12 2;
#X connect 15 0 12 0;
#X connect 17 0 3 0;
#X restore 843 310 pd ampGesture5;
#X obj 857 333 hsl 32 15 0 1 0 0 empty empty empty -2 -8 0 10 -262144
-1 -1 0 1;
#X obj 854 288 spigot;
#X obj 887 273 tgl 15 0 empty empty empty 17 7 0 10 -262144 -1 -1 0
1;
#X msg 793 306 0;
#X msg 791 381 \$1;
#X msg 791 349 bang;
#X obj 907 273 == 0;
#X obj 895 382 spigot;
#X obj 925 368 tgl 15 0 empty empty empty 17 7 0 10 -262144 -1 -1 1
1;
#X obj 906 328 del 5000;
#X obj 915 401 loadbang;
#X msg 926 348 0;
#X msg 899 349 1;
#X obj 870 238 loadbang;
#X msg 884 254 1;
#X obj 791 365 v b5;
#X obj 840 525 select 0;
#X obj 527 97 hsl 32 15 0 1 0 0 empty empty empty -2 -8 0 10 -262144
-1 -1 0 1;
#X obj 524 52 spigot;
#X obj 557 37 tgl 15 0 empty empty empty 17 7 0 10 -262144 -1 -1 1
1;
#X msg 488 18 0;
#X msg 486 93 \$1;
#X msg 486 61 bang;
#X obj 577 37 == 0;
#X obj 550 149 spigot;
#X obj 586 133 tgl 15 0 empty empty empty 17 7 0 10 -262144 -1 -1 1
1;
#X obj 567 93 del 5000;
#X obj 517 172 loadbang;
#X msg 593 111 0;
#X msg 566 112 1;
#X obj 540 2 loadbang;
#X msg 554 18 1;
#X obj 486 77 v b1;
#X obj 429 133 select 0;
#X obj 428 547 line 0 25;
#X obj 336 309 line 0 25;
#X obj 418 93 line 0 25;
#X obj 872 484 line 0 25;
#X obj 1069 515 *~;
#X obj 993 517 *~ 1;
#X obj 1131 52 loadbang;
#X msg 1131 68 0;
#X msg 742 192 bang;
#X obj 400 206 loadbang;
#X msg 400 221 0;
#X obj 275 335 loadbang;
#X msg 275 350 0;
#X obj 234 462 loadbang;
#X msg 234 477 0;
#X obj 230 525 loadbang;
#X msg 230 540 0;
#X obj 797 472 loadbang;
#X msg 797 487 0;
#X obj 728 541 bng 15 250 50 0 empty empty empty 17 7 0 10 -262144
-1 -1;
#X msg 520 279 500.6 500 567 500 0.5 500 671.9 500 0.7 500;
#X obj 468 287 moses 1;
#X obj 468 268 random 2;
#X obj 430 280 sel 1;
#X obj 524 117 * 0.3;
#X obj 336 269 * 0.12;
#X obj 11 314 beats3 493.8 659.2 0.3 1046 0.7 0.3 1 1 0.5 0.5 0.12
;
#X obj 290 397 * 0.3;
#X obj 429 437 * 0.3;
#X obj 418 37 * 0.3;
#X obj 8 440 beats3 100 500 1 800 1.5 0.1 0.4 0.4 0.7 0.7 0.3;
#X obj 573 477 throw~ L-\$0-gliss;
#X obj 682 477 throw~ R-\$0-gliss;
#X obj 891 560 catch~ L-\$0-gliss;
#X obj 891 583 catch~ R-\$0-gliss;
#X obj 1023 514 * 0.35;
#X obj 1023 534 + 0.65;
#X obj 1101 534 + 0.65;
#X obj 1102 515 * 0.65;
#X obj 637 586 *~;
#X obj 674 574 *~;
#X obj 617 549 + 0.65;
#X obj 672 549 + 0.65;
#X obj 617 521 * -0.55;
#X obj 672 521 * -0.55;
#X obj 428 509 * 0.2;
#X obj 205 183 beats3 200 500 1 800 1.5 0.1 1 1 1 1 0.3;
#X obj 39 567 beats5 329.6 830.6 0.6 493.8 1.2 1479 0.7 2230 1.1 0.3
1 1 1 1 0.5 0.5 0.15 0.15 0.2;
#X obj 26 503 random 3;
#N canvas 0 23 736 495 different_presets_for_beats5 1;
#X msg 32 300 \$1 \$2;
#X obj 32 321 line 25;
#X obj 81 321 line 25;
#X obj 131 320 line 25;
#X obj 182 320 line 25;
#X obj 231 320 line 25;
#X msg 81 301 \$3 \$4;
#X msg 131 300 \$5 \$6;
#X msg 182 300 \$7 \$8;
#X msg 231 300 \$9 \$10;
#X obj 281 320 line 25;
#X msg 281 300 \$11 \$12;
#X obj 331 320 line 25;
#X msg 331 300 \$13 \$14;
#X obj 186 359 line 25;
#X obj 236 359 line 25;
#X msg 186 339 \$15 \$16;
#X msg 236 339 \$17 \$18;
#X msg 123 29 164 100 233 100 0.01 100 311 100 0.15 100 415.3 100 0.3
100 494.4 100 0.2 100;
#X msg 235 73 164 100 220 100 0.01 100 293.6 100 0.15 100 369.9 100
0.3 100 493.8 100 0.2 100;
#X msg 343 116 329.6 100 830.6 100 0.6 100 493.8 100 1.2 100 1479 100
0.7 100 2230 100 1.1 100;
#X obj 32 443 outlet;
#X obj 81 443 outlet;
#X obj 130 444 outlet;
#X obj 179 444 outlet;
#X obj 230 445 outlet;
#X obj 279 445 outlet;
#X obj 328 446 outlet;
#X obj 377 446 outlet;
#X obj 427 446 outlet;
#X obj 21 11 inlet;
#X obj 21 86 select 0 1 2;
#X connect 0 0 1 0;
#X connect 1 0 21 0;
#X connect 2 0 22 0;
#X connect 3 0 23 0;
#X connect 4 0 24 0;
#X connect 5 0 25 0;
#X connect 6 0 2 0;
#X connect 7 0 3 0;
#X connect 8 0 4 0;
#X connect 9 0 5 0;
#X connect 10 0 26 0;
#X connect 11 0 10 0;
#X connect 12 0 27 0;
#X connect 13 0 12 0;
#X connect 14 0 28 0;
#X connect 15 0 29 0;
#X connect 16 0 14 0;
#X connect 17 0 15 0;
#X connect 18 0 0 0;
#X connect 18 0 6 0;
#X connect 18 0 7 0;
#X connect 18 0 8 0;
#X connect 18 0 9 0;
#X connect 18 0 11 0;
#X connect 18 0 13 0;
#X connect 18 0 16 0;
#X connect 18 0 17 0;
#X connect 19 0 0 0;
#X connect 19 0 6 0;
#X connect 19 0 7 0;
#X connect 19 0 8 0;
#X connect 19 0 9 0;
#X connect 19 0 11 0;
#X connect 19 0 13 0;
#X connect 19 0 16 0;
#X connect 19 0 17 0;
#X connect 19 0 14 0;
#X connect 19 0 15 0;
#X connect 20 0 0 0;
#X connect 20 0 6 0;
#X connect 20 0 7 0;
#X connect 20 0 8 0;
#X connect 20 0 9 0;
#X connect 20 0 11 0;
#X connect 20 0 13 0;
#X connect 20 0 16 0;
#X connect 20 0 17 0;
#X connect 30 0 31 0;
#X connect 31 0 18 0;
#X connect 31 1 19 0;
#X connect 31 2 20 0;
#X restore 30 536 pd different_presets_for_beats5;
#X obj 502 548 sel 1;
#X obj 501 528 t f f;
#X obj 857 351 * 0.1;
#X obj 872 444 * 0.05;
#X obj 523 453 beats3 500.6 567 0.5 671.9 0.7 0.4 1 1 0.2 0.2 0.05
;
#X connect 1 0 253 0;
#X connect 2 0 253 1;
#X connect 3 0 253 2;
#X connect 4 0 253 3;
#X connect 5 0 253 4;
#X connect 6 0 7 0;
#X connect 7 0 1 0;
#X connect 8 0 2 0;
#X connect 9 0 3 0;
#X connect 10 0 4 0;
#X connect 11 0 5 0;
#X connect 12 0 8 0;
#X connect 13 0 9 0;
#X connect 14 0 10 0;
#X connect 15 0 11 0;
#X connect 16 0 160 0;
#X connect 16 0 237 10;
#X connect 22 0 208 0;
#X connect 23 0 209 0;
#X connect 24 0 169 0;
#X connect 25 0 26 0;
#X connect 26 0 62 0;
#X connect 26 0 125 0;
#X connect 27 0 25 0;
#X connect 28 0 61 0;
#X connect 29 0 62 0;
#X connect 30 0 62 0;
#X connect 31 0 87 0;
#X connect 32 0 0 0;
#X connect 32 1 0 1;
#X connect 39 0 212 0;
#X connect 40 0 211 0;
#X connect 41 0 233 10;
#X connect 42 0 206 0;
#X connect 42 0 253 10;
#X connect 46 0 197 0;
#X connect 51 0 232 0;
#X connect 52 0 161 0;
#X connect 53 0 254 18;
#X connect 54 0 207 0;
#X connect 55 0 258 0;
#X connect 59 0 60 0;
#X connect 59 0 242 0;
#X connect 59 0 245 0;
#X connect 59 0 250 0;
#X connect 59 0 251 0;
#X connect 60 0 32 2;
#X connect 61 0 27 0;
#X connect 62 0 28 0;
#X connect 65 0 83 0;
#X connect 66 0 253 7;
#X connect 66 0 253 9;
#X connect 68 0 83 0;
#X connect 69 0 84 0;
#X connect 70 0 233 7;
#X connect 70 0 233 9;
#X connect 72 0 84 0;
#X connect 73 0 88 0;
#X connect 74 0 254 11;
#X connect 74 0 254 13;
#X connect 74 0 254 15;
#X connect 74 0 254 17;
#X connect 76 0 88 0;
#X connect 77 0 85 0;
#X connect 78 0 237 7;
#X connect 78 0 237 9;
#X connect 80 0 85 0;
#X connect 81 0 82 0;
#X connect 83 0 67 0;
#X connect 83 0 66 0;
#X connect 84 0 71 0;
#X connect 84 0 70 0;
#X connect 85 0 79 0;
#X connect 85 0 78 0;
#X connect 86 0 6 0;
#X connect 86 0 12 0;
#X connect 86 0 13 0;
#X connect 86 0 14 0;
#X connect 86 0 15 0;
#X connect 87 0 6 0;
#X connect 87 0 12 0;
#X connect 87 0 13 0;
#X connect 87 0 14 0;
#X connect 87 0 15 0;
#X connect 88 0 75 0;
#X connect 88 0 74 0;
#X connect 89 0 189 0;
#X connect 89 0 261 10;
#X connect 90 0 210 0;
#X connect 91 0 180 0;
#X connect 91 0 230 0;
#X connect 92 0 96 0;
#X connect 93 0 261 7;
#X connect 93 0 261 9;
#X connect 95 0 96 0;
#X connect 96 0 94 0;
#X connect 96 0 93 0;
#X connect 99 0 261 0;
#X connect 100 0 261 1;
#X connect 101 0 261 2;
#X connect 102 0 261 3;
#X connect 103 0 261 4;
#X connect 104 0 105 0;
#X connect 105 0 99 0;
#X connect 106 0 100 0;
#X connect 107 0 101 0;
#X connect 108 0 102 0;
#X connect 109 0 103 0;
#X connect 110 0 106 0;
#X connect 111 0 107 0;
#X connect 112 0 108 0;
#X connect 113 0 109 0;
#X connect 114 0 104 0;
#X connect 114 0 110 0;
#X connect 114 0 111 0;
#X connect 114 0 112 0;
#X connect 114 0 113 0;
#X connect 115 0 190 0;
#X connect 117 0 89 0;
#X connect 120 0 117 0;
#X connect 121 0 174 0;
#X connect 122 0 121 0;
#X connect 122 0 123 0;
#X connect 122 0 191 0;
#X connect 123 0 151 0;
#X connect 124 0 134 0;
#X connect 124 0 135 0;
#X connect 125 0 126 0;
#X connect 125 1 128 0;
#X connect 125 2 130 0;
#X connect 126 0 124 0;
#X connect 127 0 136 0;
#X connect 127 0 138 0;
#X connect 128 0 127 0;
#X connect 129 0 137 0;
#X connect 129 0 150 0;
#X connect 130 0 129 0;
#X connect 131 0 124 0;
#X connect 132 0 127 0;
#X connect 133 0 129 0;
#X connect 134 0 47 0;
#X connect 134 0 18 0;
#X connect 135 0 19 0;
#X connect 135 0 48 0;
#X connect 136 0 49 0;
#X connect 136 0 20 0;
#X connect 137 0 97 0;
#X connect 137 0 98 0;
#X connect 138 0 50 0;
#X connect 138 0 21 0;
#X connect 139 0 235 0;
#X connect 141 0 140 0;
#X connect 142 0 146 0;
#X connect 143 0 147 0;
#X connect 144 0 148 0;
#X connect 145 0 149 0;
#X connect 150 0 156 0;
#X connect 151 0 171 0;
#X connect 151 0 165 0;
#X connect 151 0 163 0;
#X connect 152 0 151 1;
#X connect 153 0 152 0;
#X connect 154 0 159 0;
#X connect 155 0 154 0;
#X connect 157 0 215 0;
#X connect 158 0 155 0;
#X connect 159 0 152 0;
#X connect 160 0 158 0;
#X connect 161 0 153 0;
#X connect 161 0 234 0;
#X connect 162 0 161 1;
#X connect 163 0 166 0;
#X connect 164 0 166 0;
#X connect 165 0 162 0;
#X connect 166 0 162 0;
#X connect 167 0 168 0;
#X connect 168 0 152 0;
#X connect 169 0 16 0;
#X connect 170 0 122 0;
#X connect 171 0 139 0;
#X connect 172 0 173 0;
#X connect 173 0 259 0;
#X connect 174 0 184 0;
#X connect 174 0 182 0;
#X connect 174 0 172 0;
#X connect 175 0 174 1;
#X connect 176 0 175 0;
#X connect 177 0 179 0;
#X connect 178 0 188 0;
#X connect 179 0 175 0;
#X connect 180 0 176 0;
#X connect 180 0 260 0;
#X connect 181 0 180 1;
#X connect 182 0 185 0;
#X connect 183 0 185 0;
#X connect 184 0 181 0;
#X connect 185 0 181 0;
#X connect 186 0 187 0;
#X connect 187 0 175 0;
#X connect 188 0 177 0;
#X connect 189 0 178 0;
#X connect 190 0 231 0;
#X connect 191 0 201 0;
#X connect 191 0 199 0;
#X connect 191 0 115 0;
#X connect 192 0 191 1;
#X connect 193 0 192 0;
#X connect 194 0 196 0;
#X connect 195 0 205 0;
#X connect 196 0 192 0;
#X connect 197 0 193 0;
#X connect 197 0 236 0;
#X connect 198 0 197 1;
#X connect 199 0 202 0;
#X connect 200 0 202 0;
#X connect 201 0 198 0;
#X connect 202 0 198 0;
#X connect 203 0 204 0;
#X connect 204 0 192 0;
#X connect 205 0 194 0;
#X connect 206 0 195 0;
#X connect 207 0 53 0;
#X connect 208 0 41 0;
#X connect 209 0 42 0;
#X connect 210 0 89 0;
#X connect 211 0 32 1;
#X connect 212 0 32 0;
#X connect 213 0 214 0;
#X connect 214 0 81 0;
#X connect 215 0 170 0;
#X connect 216 0 217 0;
#X connect 217 0 253 10;
#X connect 218 0 219 0;
#X connect 219 0 233 10;
#X connect 220 0 221 0;
#X connect 221 0 169 0;
#X connect 222 0 223 0;
#X connect 223 0 254 18;
#X connect 224 0 225 0;
#X connect 225 0 261 10;
#X connect 226 0 117 0;
#X connect 227 0 104 0;
#X connect 227 0 110 0;
#X connect 227 0 111 0;
#X connect 227 0 112 0;
#X connect 227 0 113 0;
#X connect 228 0 114 0;
#X connect 228 1 227 0;
#X connect 229 0 228 0;
#X connect 230 0 229 0;
#X connect 231 0 253 10;
#X connect 232 0 22 0;
#X connect 233 0 37 0;
#X connect 233 1 38 0;
#X connect 234 0 24 0;
#X connect 235 0 237 10;
#X connect 236 0 23 0;
#X connect 237 0 35 0;
#X connect 237 1 36 0;
#X connect 240 0 246 0;
#X connect 241 0 247 0;
#X connect 242 0 243 0;
#X connect 243 0 212 1;
#X connect 244 0 211 1;
#X connect 245 0 244 0;
#X connect 246 0 0 0;
#X connect 248 0 246 1;
#X connect 249 0 247 1;
#X connect 250 0 248 0;
#X connect 251 0 249 0;
#X connect 252 0 54 0;
#X connect 253 0 33 0;
#X connect 253 1 34 0;
#X connect 254 0 56 0;
#X connect 254 1 57 0;
#X connect 255 0 256 0;
#X connect 256 0 254 0;
#X connect 256 1 254 1;
#X connect 256 2 254 2;
#X connect 256 3 254 3;
#X connect 256 4 254 4;
#X connect 256 5 254 5;
#X connect 256 6 254 6;
#X connect 256 7 254 7;
#X connect 256 8 254 8;
#X connect 257 0 255 0;
#X connect 258 0 252 0;
#X connect 258 1 257 0;
#X connect 259 0 261 10;
#X connect 260 0 90 0;
#X connect 261 0 238 0;
#X connect 261 1 239 0;
