#N canvas 1333 66 1010 623 10;
#X text 387 386 We have two different beat frequencies: 1 and 1.5 Hz
\, so they coincide every 3s;
#X text 386 424 The two pairs that create these beats are harmonically
related (500|501 vs 800|801.5) to the lower tone (100 Hz):;
#X text 386 455 they are *5th harmonic (2 octaves + just major third)
and *8th harmonic (2 octaves + septimal major second);
#X msg 347 117 0.1 1000;
#X msg 408 116 1 1000;
#X obj 380 141 line 1 25;
#X obj 810 438 dac~;
#X floatatom 32 168 5 0 0 0 - - -, f 5;
#X floatatom 67 168 5 0 0 0 - - -, f 5;
#X floatatom 102 168 5 0 0 0 - - -, f 5;
#X floatatom 137 168 5 0 0 0 - - -, f 5;
#X floatatom 172 168 5 0 0 0 - - -, f 5;
#X msg 6 72 \$1 \$2;
#X obj 5 92 line 25;
#X obj 71 92 line 25;
#X obj 137 92 line 25;
#X obj 204 92 line 25;
#X obj 272 92 line 25;
#X msg 71 72 \$3 \$4;
#X msg 137 72 \$5 \$6;
#X msg 204 72 \$7 \$8;
#X msg 272 72 \$9 \$10;
#X obj 300 457 hsl 32 15 0 1 0 0 empty empty empty -2 -8 0 10 -4034
-1 -1 1821 1;
#X msg 218 241 0.1 1000;
#X msg 279 240 1 1000;
#X obj 253 277 line 1 25;
#X msg 192 366 0.1 1000;
#X msg 250 366 1 1000;
#X obj 221 395 line 1 25;
#N canvas 298 132 906 392 try_combinations 1;
#X obj 775 80 ctlin;
#X obj 292 5 notein;
#X floatatom 273 35 5 0 0 0 - - -, f 5;
#X floatatom 308 35 5 0 0 0 - - -, f 5;
#X floatatom 343 35 5 0 0 0 - - -, f 5;
#X obj 284 106 hradio 15 1 0 8 empty empty empty 0 -8 0 10 -262144
-1 -1 7;
#X obj 273 56 - 36;
#X obj 284 85 spigot;
#X obj 343 55 == 10;
#X obj 661 130 notein;
#X obj 670 178 spigot;
#X obj 694 156 != 10;
#X obj 695 212 mtof;
#X obj 761 135 == 7;
#X obj 737 156 spigot;
#X obj 739 181 * 0.1;
#X obj 721 239 +;
#X obj 13 179 spigot;
#X obj 46 156 == 0;
#X floatatom 14 203 5 0 0 0 - - -, f 5;
#X obj 81 179 spigot;
#X floatatom 82 203 5 0 0 0 - - -, f 5;
#X obj 13 156 r nt;
#X obj 81 157 r nt;
#X obj 114 156 == 1;
#X obj 213 179 spigot;
#X floatatom 214 203 5 0 0 0 - - -, f 5;
#X obj 213 157 r nt;
#X obj 246 156 == 2;
#X obj 828 136 == 75;
#X obj 811 157 spigot;
#X floatatom 811 259 5 0 0 0 - - -, f 5;
#X floatatom 720 261 5 0 0 0 - - -, f 5;
#X obj 722 283 s nt;
#X obj 147 180 spigot;
#X floatatom 148 204 5 0 0 0 - - -, f 5;
#X obj 279 179 spigot;
#X floatatom 280 203 5 0 0 0 - - -, f 5;
#X obj 811 283 s b_f;
#X obj 147 157 r b_f;
#X obj 279 157 r b_f;
#X obj 180 157 == 1;
#X obj 316 157 == 2;
#X text 801 302 beat freq;
#X text 685 302 note + variation;
#X obj 811 182 * 0.1;
#X obj 320 320 hsl 16 15 0 1 0 0 empty empty empty -2 -8 0 10 -262144
-1 -1 0 1;
#X obj 313 344 dac~;
#X obj 485 316 loadbang;
#X msg 460 332 0;
#X obj 326 70 tgl 15 0 empty empty empty 17 7 0 10 -262144 -1 -1 0
1;
#X floatatom 739 209 5 0 0 0 - - -, f 5;
#X obj 463 299 hsl 16 15 0 1 0 0 empty empty empty -2 -8 0 10 -262144
-1 -1 0 1;
#X obj 350 180 spigot;
#X floatatom 351 204 5 0 0 0 - - -, f 5;
#X obj 350 158 r nt;
#X obj 482 180 spigot;
#X floatatom 483 204 5 0 0 0 - - -, f 5;
#X obj 482 158 r nt;
#X obj 416 181 spigot;
#X floatatom 417 205 5 0 0 0 - - -, f 5;
#X obj 548 180 spigot;
#X floatatom 549 204 5 0 0 0 - - -, f 5;
#X obj 416 158 r b_f;
#X obj 548 158 r b_f;
#X obj 383 157 == 3;
#X obj 449 158 == 3;
#X obj 515 157 == 4;
#X obj 585 158 == 4;
#X obj 688 244 bng 15 250 50 0 empty empty empty 17 7 0 10 -262144
-1 -1;
#X obj 63 273 notein;
#X floatatom 63 293 5 0 0 0 - - -, f 5;
#X obj 63 312 mtof;
#X floatatom 63 333 5 0 0 0 - - -, f 5;
#X obj 220 299 beats5 100 500 1 800 1.5 900 2 1000 5;
#X connect 0 0 30 0;
#X connect 0 0 14 0;
#X connect 0 1 13 0;
#X connect 0 1 29 0;
#X connect 1 0 2 0;
#X connect 1 1 3 0;
#X connect 1 2 4 0;
#X connect 2 0 6 0;
#X connect 4 0 8 0;
#X connect 5 0 18 0;
#X connect 5 0 24 0;
#X connect 5 0 28 0;
#X connect 5 0 41 0;
#X connect 5 0 42 0;
#X connect 5 0 65 0;
#X connect 5 0 66 0;
#X connect 5 0 67 0;
#X connect 5 0 68 0;
#X connect 6 0 7 0;
#X connect 7 0 5 0;
#X connect 8 0 50 0;
#X connect 9 0 10 0;
#X connect 9 2 11 0;
#X connect 10 0 12 0;
#X connect 11 0 10 1;
#X connect 12 0 16 0;
#X connect 13 0 14 1;
#X connect 14 0 15 0;
#X connect 15 0 51 0;
#X connect 16 0 32 0;
#X connect 17 0 19 0;
#X connect 18 0 17 1;
#X connect 19 0 74 0;
#X connect 20 0 21 0;
#X connect 21 0 74 1;
#X connect 22 0 17 0;
#X connect 23 0 20 0;
#X connect 24 0 20 1;
#X connect 25 0 26 0;
#X connect 26 0 74 3;
#X connect 27 0 25 0;
#X connect 28 0 25 1;
#X connect 29 0 30 1;
#X connect 30 0 45 0;
#X connect 31 0 38 0;
#X connect 32 0 33 0;
#X connect 34 0 35 0;
#X connect 35 0 74 2;
#X connect 36 0 37 0;
#X connect 37 0 74 4;
#X connect 39 0 34 0;
#X connect 40 0 36 0;
#X connect 41 0 34 1;
#X connect 42 0 36 1;
#X connect 45 0 31 0;
#X connect 46 0 74 5;
#X connect 48 0 49 0;
#X connect 49 0 52 0;
#X connect 50 0 7 1;
#X connect 51 0 16 1;
#X connect 51 0 69 0;
#X connect 52 0 74 18;
#X connect 53 0 54 0;
#X connect 54 0 74 5;
#X connect 55 0 53 0;
#X connect 56 0 57 0;
#X connect 57 0 74 7;
#X connect 58 0 56 0;
#X connect 59 0 60 0;
#X connect 60 0 74 6;
#X connect 61 0 62 0;
#X connect 62 0 74 8;
#X connect 63 0 59 0;
#X connect 64 0 61 0;
#X connect 65 0 53 1;
#X connect 66 0 59 1;
#X connect 67 0 56 1;
#X connect 68 0 61 1;
#X connect 69 0 16 0;
#X connect 70 0 71 0;
#X connect 71 0 72 0;
#X connect 72 0 73 0;
#X connect 74 0 47 0;
#X connect 74 1 47 1;
#X restore 869 516 pd try_combinations;
#X obj 696 200 tgl 15 0 empty empty empty 17 7 0 10 -262144 -1 -1 0
1;
#X obj 732 200 tgl 15 0 empty empty empty 17 7 0 10 -262144 -1 -1 0
1;
#X obj 769 200 tgl 15 0 empty empty empty 17 7 0 10 -262144 -1 -1 1
1;
#X obj 805 200 tgl 15 0 empty empty empty 17 7 0 10 -262144 -1 -1 0
1;
#X obj 336 269 * 0.3;
#X msg 336 289 \$1 4000;
#X msg 461 162 \$1 4000;
#X msg 297 417 \$1 4000;
#X msg 696 73 \$1;
#X obj 696 97 delay;
#X floatatom 783 110 5 0 0 0 - - -, f 5;
#X obj 749 86 * 100;
#X obj 749 44 loadbang;
#X obj 741 29 bng 15 250 50 0 empty empty empty 17 7 0 10 -262144 -1
-1;
#X obj 329 14 loadbang;
#N canvas 143 131 612 335 GB 1;
#X obj 22 17 inlet~;
#X obj 22 291 outlet~;
#X obj 543 299 outlet~;
#X obj 22 79 GB/grannie-basher;
#X obj 304 17 inlet~;
#X text 233 272 delay line granulizer;
#X text 242 288 hard.off@gmail.com;
#X obj 510 18 inlet;
#X connect 0 0 3 0;
#X connect 3 0 1 0;
#X connect 3 1 2 0;
#X connect 4 0 3 1;
#X connect 7 0 3 2;
#X restore 806 410 pd GB;
#X obj 205 203 throw~ L-\$0;
#X obj 283 203 throw~ R-\$0;
#X obj 69 466 throw~ L-\$0;
#X obj 147 466 throw~ R-\$0;
#X obj 83 335 throw~ L-\$0;
#X obj 161 335 throw~ R-\$0;
#X obj 758 382 catch~ L-\$0;
#X obj 836 382 catch~ R-\$0;
#X text 387 366 Based on Jean Claude Risset's beats;
#X obj 339 329 hsl 32 15 0 1 0 0 empty empty empty -2 -8 0 10 -4034
-1 -1 87 1;
#X obj 464 202 hsl 32 15 0 1 0 0 empty empty empty -2 -8 0 10 -4034
-1 -1 18 1;
#X text 681 322 100(A2-) 500(B4+) 800(A5++);
#X text 681 302 493.8(B4) 659.2(E4) 1046(C5);
#X text 681 282 150 (D-D#3) 600 (D-D#5) 700(F);
#X obj 461 122 r b-\$0-1;
#X obj 696 162 s b-\$0-1;
#X obj 732 182 s b-\$0-2;
#X obj 769 162 s b-\$0-3;
#X obj 805 181 s b-\$0-4;
#X obj 336 250 r b-\$0-2;
#X obj 297 377 r b-\$0-3;
#X obj 431 566 hsl 32 15 0 1 0 0 empty empty empty -2 -8 0 10 -4034
-1 -1 23 1;
#X msg 428 528 \$1 4000;
#X obj 428 490 r b-\$0-4;
#X obj 152 603 throw~ L-\$0;
#X obj 230 603 throw~ R-\$0;
#X msg 269 499 0.1 1000;
#X msg 330 498 1 1000;
#X obj 305 527 line 1 25;
#X text 682 341 329.6(E4) 830.6(B5) 493.8(G#4) 1479(F#6) 2230(C#-)
;
#X obj 858 405 r mix;
#X obj 860 425 hsl 32 8 0 1 0 0 empty empty empty -2 -8 0 10 -16662
-262144 -1 0 1;
#X obj 474 80 r bool_rissetBeats;
#X obj 783 94 max 1000;
#X obj 749 66 random 60;
#X obj 915 391 loadbang;
#X msg 915 407 0;
#N canvas 732 266 208 248 receive_OSC 1;
#X obj 11 6 loadbang;
#X obj 11 50 netreceive -u -b;
#X obj 11 72 oscparse;
#X obj 11 94 list trim;
#X msg 100 28 disconnect;
#X msg 11 28 listen 8082;
#X obj 11 116 route mix;
#X obj 28 196 s mix;
#X obj 28 174 line 1 25;
#X msg 28 153 \$1 200;
#X connect 0 0 5 0;
#X connect 1 0 2 0;
#X connect 2 0 3 0;
#X connect 3 0 6 0;
#X connect 4 0 1 0;
#X connect 5 0 1 0;
#X connect 6 0 9 0;
#X connect 8 0 7 0;
#X connect 9 0 8 0;
#X restore 518 271 pd receive_OSC;
#X text 710 230 TODO - more beats instances;
#X obj 461 182 line 0.7 25;
#X obj 336 309 line 0.7 25;
#X obj 428 547 line 0.7 25;
#X obj 297 437 line 0.7 25;
#X obj 356 40 r mix;
#X msg 356 82 \$1 500;
#X floatatom 418 78 5 0 0 0 - - -, f 5;
#X obj 408 48 hsl 32 8 0 1 0 0 empty empty empty -2 -8 0 10 -16662
-262144 -1 0 1;
#X obj 116 235 r mix;
#X msg 116 277 \$1 500;
#X floatatom 178 273 5 0 0 0 - - -, f 5;
#X obj 165 244 hsl 32 8 0 1 0 0 empty empty empty -2 -8 0 10 -16662
-262144 -1 0 1;
#X obj 170 487 r mix;
#X msg 170 529 \$1 500;
#X floatatom 232 525 5 0 0 0 - - -, f 5;
#X obj 219 496 hsl 32 8 0 1 0 0 empty empty empty -2 -8 0 10 -16662
-262144 -1 0 1;
#X obj 117 376 r mix;
#X msg 117 418 \$1 500;
#X floatatom 179 414 5 0 0 0 - - -, f 5;
#X obj 156 384 hsl 32 8 0 1 0 0 empty empty empty -2 -8 0 10 -16662
-262144 -1 0 1;
#X obj 584 186 hsl 32 8 0 1 0 0 empty empty empty -2 -8 0 10 -16662
-262144 -1 0 1;
#X obj 581 202 s mix;
#X obj 356 62 expr 1 -$f1*0.9;
#X obj 116 257 expr 1 -$f1*0.9;
#X obj 117 398 expr 1 -$f1*0.9;
#X obj 461 142 * 0.6;
#X obj 297 397 * 0.6;
#X obj 428 509 * 0.6;
#X obj 696 127 randomSwitches/randomSwitches 30;
#X msg 50 7 200 5000 500 5000 1 5000 800 5000 1.5 5000;
#X msg 50 30 150 5000 600 5000 3.1 5000 700 5000 4.5 5000;
#X obj 205 183 beats3 200 500 1 800 1.5 0.25 1 1 1 1 0.6;
#X obj 19 442 beats3 100 500 1 800 1.5 0.25 1 1 1 1 0.6;
#X obj 170 509 expr 1 -$f1;
#X obj 39 567 beats5 329.6 830.6 0.6 493.8 1.2 1479 0.7 2230 1.1 0.3
1 1 1 1 1 1 1 1 1 1 0.6;
#X obj 11 314 beats3 493.8 659.2 0.3 1046 0.7 0.3 1 1 1 1 0.75;
#X connect 3 0 5 0;
#X connect 4 0 5 0;
#X connect 5 0 116 7;
#X connect 5 0 116 9;
#X connect 7 0 116 0;
#X connect 8 0 116 1;
#X connect 9 0 116 2;
#X connect 10 0 116 3;
#X connect 11 0 116 4;
#X connect 12 0 13 0;
#X connect 13 0 7 0;
#X connect 14 0 8 0;
#X connect 15 0 9 0;
#X connect 16 0 10 0;
#X connect 17 0 11 0;
#X connect 18 0 14 0;
#X connect 19 0 15 0;
#X connect 20 0 16 0;
#X connect 21 0 17 0;
#X connect 22 0 117 10;
#X connect 23 0 25 0;
#X connect 24 0 25 0;
#X connect 25 0 120 9;
#X connect 25 0 120 7;
#X connect 26 0 28 0;
#X connect 27 0 28 0;
#X connect 28 0 117 9;
#X connect 28 0 117 7;
#X connect 34 0 35 0;
#X connect 35 0 86 0;
#X connect 36 0 85 0;
#X connect 37 0 88 0;
#X connect 38 0 39 0;
#X connect 39 0 80 0;
#X connect 39 0 113 0;
#X connect 41 0 79 0;
#X connect 42 0 80 0;
#X connect 43 0 80 0;
#X connect 44 0 115 0;
#X connect 45 0 6 0;
#X connect 45 1 6 1;
#X connect 52 0 45 0;
#X connect 53 0 45 1;
#X connect 55 0 120 10;
#X connect 56 0 116 10;
#X connect 60 0 110 0;
#X connect 65 0 34 0;
#X connect 66 0 111 0;
#X connect 67 0 119 18;
#X connect 68 0 87 0;
#X connect 69 0 112 0;
#X connect 72 0 74 0;
#X connect 73 0 74 0;
#X connect 74 0 119 17;
#X connect 74 0 119 15;
#X connect 74 0 119 13;
#X connect 74 0 119 11;
#X connect 76 0 77 0;
#X connect 77 0 45 2;
#X connect 79 0 40 0;
#X connect 79 0 38 0;
#X connect 80 0 41 0;
#X connect 81 0 82 0;
#X connect 82 0 77 0;
#X connect 85 0 56 0;
#X connect 86 0 55 0;
#X connect 87 0 67 0;
#X connect 88 0 22 0;
#X connect 89 0 107 0;
#X connect 90 0 116 7;
#X connect 90 0 116 9;
#X connect 92 0 107 0;
#X connect 93 0 108 0;
#X connect 94 0 120 7;
#X connect 94 0 120 9;
#X connect 96 0 108 0;
#X connect 97 0 118 0;
#X connect 98 0 119 11;
#X connect 98 0 119 13;
#X connect 98 0 119 15;
#X connect 98 0 119 17;
#X connect 100 0 118 0;
#X connect 101 0 109 0;
#X connect 102 0 117 7;
#X connect 102 0 117 9;
#X connect 104 0 109 0;
#X connect 105 0 106 0;
#X connect 107 0 91 0;
#X connect 107 0 90 0;
#X connect 108 0 95 0;
#X connect 108 0 94 0;
#X connect 109 0 103 0;
#X connect 109 0 102 0;
#X connect 110 0 36 0;
#X connect 111 0 37 0;
#X connect 112 0 68 0;
#X connect 113 0 30 0;
#X connect 113 0 61 0;
#X connect 113 1 31 0;
#X connect 113 1 62 0;
#X connect 113 2 32 0;
#X connect 113 2 63 0;
#X connect 113 3 33 0;
#X connect 113 3 64 0;
#X connect 114 0 12 0;
#X connect 114 0 18 0;
#X connect 114 0 19 0;
#X connect 114 0 20 0;
#X connect 114 0 21 0;
#X connect 115 0 12 0;
#X connect 115 0 18 0;
#X connect 115 0 19 0;
#X connect 115 0 20 0;
#X connect 115 0 21 0;
#X connect 116 0 46 0;
#X connect 116 1 47 0;
#X connect 117 0 48 0;
#X connect 117 1 49 0;
#X connect 118 0 99 0;
#X connect 118 0 98 0;
#X connect 119 0 70 0;
#X connect 119 1 71 0;
#X connect 120 0 50 0;
#X connect 120 1 51 0;
